<?xml version="1.0" encoding="utf-8"?>
<!-- Generator: Adobe Illustrator 23.0.4, SVG Export Plug-In . SVG Version: 6.00 Build 0)  -->
<svg version="1.1" id="Layer_1" xmlns="http://www.w3.org/2000/svg" xmlns:xlink="http://www.w3.org/1999/xlink" x="0px" y="0px"
	 viewBox="0 0 972.03 642.54" style="enable-background:new 0 0 972.03 642.54;" xml:space="preserve">
<style type="text/css">
	.st0{fill:#FFFFFF;}
	.st1{fill:#397D81;}
</style>
<title>proef-Artboard 1</title>
<path class="st0" d="M650.27,0.02c3.25,2.52,6.45,5.12,9.77,7.55c9.78,7.13,19.62,14.2,29.43,21.3c6.85,5,6.91,5.19,3.81,13.1
	c5.21,3.77,10.48,7.61,15.76,11.42c15.12,10.92,30.24,21.84,45.37,32.75c5.13,3.72,5.77,6.34,2.94,10.67c-3.57,5.45-6.85,6-12.55,2
	c-18.99-13.66-37.94-27.36-56.86-41.09c-2.82-2-5-3.4-8.39-0.47c-1.21,1.06-4.92,0.94-6.42-0.11c-14.06-9.78-27.95-19.78-41.68-30
	c-1.22-0.9-1.15-3.47-1.68-5.26c2-0.19,4.57-1.22,6-0.41c4.25,2.33,8.11,5.37,12.07,8.2c5.1,3.64,10.06,7.48,15.28,10.93
	c1.15,0.76,3.17,0.25,4.79,0.32c-0.68-1.35-1-3.16-2.08-4c-8-6-16.18-11.83-24.29-17.71c-0.9-0.66-2.2-1.21-2.53-2.09
	c-0.53-1.81-0.9-3.66-1.1-5.54c1.91-0.1,4.22-0.92,5.63-0.15c3.59,2.13,7.04,4.49,10.33,7.06c5.43,3.89,10.76,7.92,16.31,11.64
	c1.37,0.92,4.5,1.68,4.94,1.11c1.73-2.19-0.35-3.57-2.11-4.83c-8.59-6.16-17.16-12.35-25.73-18.56c-3.88-2.82-3.91-4.34-0.42-7.85
	L650.27,0.02z"/>
<path class="st0" d="M328.5,642.54l-52.8-38.11c-1.89,2.42-3.67,4.8-5.56,7.09c-4.07,4.91-7.72,5-11.6,0.11
	c-12.18-15.27-24.32-30.55-36.43-45.84c-3.46-4.36-3.39-8,0-11.4s6.72-3.44,11.28-0.15c33.9,24.42,67.77,48.87,101.6,73.36
	c6.24,4.53,5.73,8.91-1.4,14.94L328.5,642.54z"/>
<path class="st0" d="M972.03,250.44c-2.49,2.88-4.86,5.88-7.51,8.62c-5.29,5.47-9.59,5.93-15.91,1.69c-2.74-1.83-5.2-4.06-8.26-6.47
	c3.38-3.91,6.33-7.67,9.67-11.07c2.52-2.55,5.8-2.52,8.91-0.86c4.41,2.35,8.74,4.83,13.1,7.26V250.44z"/>
<path class="st0" d="M0,392.94c2.7-3.29,5.19-6.79,8.17-9.82c4.53-4.61,8.84-5.06,14.28-1.61c3.12,2,5.92,4.44,9.2,6.94
	c-3.06,3.67-5.72,7-8.53,10.16s-6.36,3.71-10.2,1.77C8.6,398.2,4.3,395.97,0,393.77V392.94z"/>
<path class="st0" d="M789.34,160.53c0.79,5.08,1.5,9.68,2.29,14.78l-643.1,93.72c-0.79-5.06-1.49-9.61-2.29-14.71
	c6.93-1,13.5-2.06,20.09-3c10-1.45,20-3,30-4.23c2.85-0.36,3.51-2,4.18-4.24c16-52.55,44.65-97.38,86.27-134.1
	c43.31-38.2,93.86-62,151.5-70.89C555.13,19.9,668.41,68.72,734.02,165.13c1.66,2.44,3.24,3.11,6.15,2.66
	C756.35,165.28,772.57,162.98,789.34,160.53z M718.97,170.72c-47-71.35-147.57-134.91-269.48-119.48
	c-126.37,16-207.41,106.53-233,192.37c0.96,0.07,1.93,0.07,2.89,0c18.73-2.71,37.45-5.47,56.18-8.13
	c2.63-0.37,16.33-2.43,17.11-2.55c15.81-2.32,31.58-4.85,47.43-6.89c4.31-0.55,6.92-2.33,9.55-5.56c31.76-39,73.17-60.83,124-64.52
	c41.22-3,78.85,7.88,112.56,31.35c2.21,1.68,5.04,2.31,7.75,1.73c8.43-1.43,16.91-2.49,25.37-3.73c8.71-1.27,38.76-5.52,42.15-6.08
	c10.37-1.73,20.79-3.09,31.19-4.61C701.38,173.36,710.08,172.06,718.97,170.72z M565.79,193.1c-34.29-20.5-71-27.1-110.15-19.8
	c-34.17,6.41-62.79,22.55-85.88,48.42L565.79,193.1z"/>
<path class="st0" d="M181.88,486.72l-2.24-14.8l643-93.71l2.36,14.67c-7.12,1.09-14,2.17-20.85,3.19c-9.57,1.42-19.12,3-28.72,4.08
	c-3,0.35-4,1.61-4.71,4.13c-7.57,26.09-19.03,50.9-34,73.57c-48.15,72.43-115.7,116.87-202.82,131.42
	c-114.47,19.11-230.74-30.55-295.19-125.06c-2.93-4.31-5.62-5.15-10.52-4.34C213,482.4,197.72,484.39,181.88,486.72z M252.18,476.5
	c50.88,76.77,158.67,139.55,284.14,117.22c61-10.85,112.82-38.79,155.24-83.06c29.47-30.76,50.45-66.42,63.49-107.37
	c-3.36,0.44-6,0.76-8.56,1.14c-39,5.68-77.93,11.42-116.93,17c-2.87,0.32-5.47,1.86-7.13,4.22
	c-56.87,72.34-160.95,87.57-236.93,34.63c-2.58-1.92-5.85-2.64-9-2c-10.52,1.66-21.07,3.16-31.61,4.7L252.18,476.5z M602.33,425.5
	l-197.54,28.72c58.08,36.67,145.39,29.23,197.54-28.79L602.33,425.5z"/>
<path class="st0" d="M151.76,373.8c0.39,5.18,0.78,9.95,1.09,14.72c0.47,7.16-1.61,10.63-8.21,13.71
	c-7.43,3.47-15.37,4.76-24.2,5.47c-0.25-8.11-0.78-15.89-0.61-23.65c0.11-4.64,2.81-8.25,7.88-10.45c-15.3-6.24-14-20-17.06-33.29
	c8.69,0,16.51-0.2,24.33,0.07c6.48,0.22,10.66,4.17,12.31,11c1.13,4.64,2.08,9.33,3.17,14.29c3.8-0.38,7.58-0.96,11.32-1.73
	c1.14-0.29,2.09-2.17,2.68-3.5c2.61-5.94,7.1-9.55,13.64-10.19s11.88,1.92,15.33,7.43c3.33,4.95,3.36,11.41,0.08,16.39
	c-5.88,9.69-20.24,10.25-26.89,0.9c-1.76-2.48-3.42-3.12-6.15-2.58S154.97,373.29,151.76,373.8z"/>
<path class="st0" d="M861.41,302.35c-9.08,0-17.19,0.22-25.28-0.07c-5.73-0.22-9.76-4.22-11.34-10.55
	c-1.15-4.64-2.07-9.34-3.2-14.51c-3.89,0.35-7.77,0.91-11.6,1.68c-1.14,0.28-2.06,2.27-2.66,3.65c-2.94,6.75-10,10.73-17.3,9.76
	c-7.44-0.97-13.2-6.98-13.86-14.45c-0.53-7.31,4.08-14.01,11.09-16.14c6.77-2.19,14.3,0,18.18,6c1.72,2.63,3.31,3.46,6.33,2.67
	c2.8-0.58,5.63-1.02,8.47-1.31c-0.36-5-0.73-9.77-1.05-14.52c-0.5-7.42,1.59-10.94,8.4-14c7.34-3.33,15.13-4.73,24.08-5.27
	c0.17,8.31,1,16.39,0.21,24.33c-0.33,3.55-3.74,6.81-5.87,10.39C859.54,275.43,858.25,289.09,861.41,302.35z"/>
<path class="st0" d="M769.64,539.85c5.26,6.82,5.27,7,0.22,13.69c-8.93,11.79-17.87,23.57-26.81,35.36
	c-0.67,0.88-1.21,2.18-2.11,2.5c-1.61,0.57-4.06,1.32-5,0.58s-1.51-3.54-0.92-4.87c1.09-2.46,3.12-4.51,4.79-6.72
	c5.09-6.72,10.3-13.35,15.21-20.2c0.89-1.24,0.53-3.34,0.75-5c-1.47,0.72-3.44,1.08-4.35,2.23c-6,7.58-11.81,15.33-17.68,23
	c-0.58,0.76-1.14,1.56-1.77,2.29c-1.73,2-4,4-6.26,1.64c-1.06-1.12-0.89-4.65,0.15-6.13c6-8.47,12.38-16.62,18.54-25
	c0.91-1.51,1.66-3.12,2.25-4.78l-1.4-1.27c-1.49,1-3.34,1.74-4.4,3.07c-5.57,7.05-10.94,14.25-16.39,21.4c-0.75,1-1.51,2-2.31,2.94
	c-1.83,2.21-4.14,4.63-7,2.58c-3.11-2.22-0.87-4.9,0.81-7.12c9.44-12.44,18.94-24.84,28.32-37.33c2.54-3.39,5.29-5.16,9.61-3
	c2.82,1.38,4-0.93,5.34-2.66c9.77-12.88,19.54-25.77,29.3-38.67c4.51-5.95,9.06-11.86,13.55-17.83c4.09-5.44,8.09-6,14.11,0.34
	c2.11,2.22,1.66,4.88,0.06,7.23c-2,3-4.21,5.82-6.38,8.68c-12.52,16.53-25.05,33.05-37.59,49.56
	C771.34,537.54,770.46,538.72,769.64,539.85z"/>
<path class="st0" d="M201.64,121.02l31.71-41.74c1.51-2,3-4,4.52-5.94c4.25-5.44,7.72-6.23,12.33-2.83s4.68,6.91,0.51,12.42
	c-10.25,13.56-20.52,27.11-30.81,40.64c-14.48,19.05-28.95,38.1-43.4,57.15c-3.91,5.14-7.62,6-12.13,2.87c-3.11-2.14-4.39-5-3-8.58
	c7.41-19.22,14.87-38.42,22.38-57.6c1.49-3.79,5.09-4.66,9.09-2.34C195.81,116.8,198.55,118.93,201.64,121.02z"/>
<path class="st0" d="M857.11,268.91c8.2-0.44,15.59-1,23-1.19c3.64-0.17,6.91,2.2,7.87,5.71c2.24,6.61,4.26,13.28,6.07,20
	c0.21,0.79-1.44,2.94-2.32,3c-6.55,0.41-13.14,0.69-19.7,0.53c-6.08-0.15-9.38-2.84-10.77-8.51
	C859.71,282.26,858.58,275.96,857.11,268.91z"/>
<path class="st0" d="M115,373.81c-8,0.5-15.26,1.09-22.51,1.34c-3.92,0.31-7.52-2.21-8.57-6c-2.15-6.49-4-13.08-6-19.62
	c-0.75-2.44,0.51-3.34,2.71-3.38c6.86-0.12,13.72-0.32,20.58-0.18c4.37-0.14,8.22,2.86,9.16,7.13
	C112.06,359.72,113.35,366.39,115,373.81z"/>
<path class="st0" d="M87.44,413.47c-0.06-7.2-0.42-14.41-0.07-21.59c0.23-4.83,3.55-8.22,8.17-9.49c6-1.64,12.24-2.55,19.62-4
	c0.72,8.29,1.93,15.71,1.68,23.08c-0.08,2.46-3.45,5.92-6.12,7c-6.91,2.73-14.27,4.37-21.45,6.45L87.44,413.47z"/>
<path class="st0" d="M857.17,264.3c-1-7.41-2-13.77-2.56-20.17c-0.41-3.87,1.68-7.57,5.2-9.21c7.25-3.87,15.13-5.49,24.52-6.05
	c0.24,7.17,0.86,14.08,0.6,21c-0.21,5.62-3.83,9.52-9.33,10.95C869.83,262.27,863.87,263.06,857.17,264.3z"/>
<path class="st0" d="M912.27,289.61c-3.21,0-6.44,0.16-9.65,0c-4.24-0.25-7.14-2.48-8.1-6.55c-1.21-4.78-2.12-9.62-2.73-14.51
	c-0.14-1.31,1.54-3.86,2.73-4.07c5.35-0.95,10.75-1.55,16.18-1.8c3.63-0.23,6.94,2.07,8,5.55c2.11,6.07,3.72,12.3,5.48,18.48
	c0.65,2.27-0.68,3-2.7,3h-9.25L912.27,289.61z"/>
<path class="st0" d="M56.24,415.87c0-7.2-0.2-14,0.07-20.82c0.18-4.69,3.36-7.55,7.81-8.51c5.85-1.28,11.82-2,18.46-3.11
	c0.5,6.65,1.51,12.9,1.18,19.07c-0.15,2.63-2.55,5.83-4.87,7.52C72.48,414.72,64.64,414.95,56.24,415.87z"/>
<path class="st0" d="M889.51,259.42c-0.56-6.3-1.16-11.87-1.5-17.46c-0.26-4.19,1.68-7.37,5.38-9.55c6.59-3.88,13.91-4.71,22-5.28
	c0,7.69,0.4,15.15-0.17,22.55c-0.28,3.58-3.61,5.84-7.3,6.57C902.07,257.4,896.12,258.3,889.51,259.42z"/>
<path class="st0" d="M60.21,353.26c2.94,0,5.89,0,8.83,0c4.52,0.07,7.44,2.35,8.47,6.56c1.13,4.65,1.86,9.39,2.82,14.08
	c0.56,2.71-0.68,4.36-3.25,4.79c-4.54,0.81-9.12,1.39-13.72,1.72c-5.16,0.31-9-2-10.63-7c-1.82-5.59-3.25-11.3-4.87-17
	c-0.68-2.36,0.26-3.3,2.69-3.25C53.77,353.32,56.99,353.27,60.21,353.26z"/>
<path class="st0" d="M947.41,278.35c-4.9,0.29-9.36,0.76-13.81,0.77c-6.54,0-9-2-10.5-8.36c-2.67-10.78-0.77-13.11,10.53-12.93
	c6.16,0.09,9,2.11,10.59,7.91C945.36,269.79,946.29,273.9,947.41,278.35z"/>
<path class="st0" d="M32.13,412.87c-0.28-5.63-0.87-10.75-0.69-15.85c0.14-4.1,3-6.48,7-7.69c11.66-3.48,13.31-2.48,14.44,9.18
	c0.64,6.56-0.93,8.85-7.44,10.8c-1.73,0.52-3.48,1-5.23,1.48C37.94,411.4,35.64,411.97,32.13,412.87z"/>
<path class="st0" d="M939.96,229.91c0.23,5.86,0.8,11.11,0.52,16.33c-0.23,4.37-3.57,6.63-7.75,7.45
	c-13.79,2.68-11.89,2.23-13.51-8.94c-1-6.92,0.75-9.3,7.71-11.33C930.89,232.26,934.91,231.26,939.96,229.91z"/>
<path class="st0" d="M24.31,364c6.33,0,11.74-0.11,17.14,0c3.26,0.09,5.38,2,6.55,4.95c0.11,0.25,0.2,0.51,0.27,0.77
	c1,4.32,3.67,9.12,0.28,12.91s-8.95,2.57-13.5,1.82c-2.54-0.53-4.73-2.14-6-4.41C27.04,375.25,26.01,370.01,24.31,364z"/>
<path class="st0" d="M271.05,300.38l11.89,84.65c0.07,1.45,0.66,2.82,1.65,3.88c0.33,0.36,0.75,0.61,1.21,0.75
	c0.35,0.08,1.5,0.22,3.44,0.44c2.38,0.2,3.71,1.36,4,3.47c0.17,1.28-0.39,2.55-1.44,3.29c-1.31,0.88-2.84,1.4-4.42,1.51l-2.45,0.34
	l-32.13,4.52l-1.88,0.26c-1.39,0.28-2.83,0.14-4.13-0.41c-1.01-0.49-1.69-1.47-1.8-2.58c-0.36-1.81,0.62-3.61,2.34-4.29
	c1.51-0.75,2.39-1.21,2.64-1.36c0.31-0.25,0.56-0.58,0.71-0.95c0.51-1.2,0.63-2.53,0.35-3.8l-10.14-72.11
	c-0.08-1.3-0.56-2.55-1.38-3.56c-0.25-0.32-0.57-0.56-0.95-0.71c-0.28-0.08-1.25-0.28-2.91-0.58c-1.83-0.18-3.27-1.65-3.42-3.49
	c-0.22-1.11,0.16-2.24,1-3c1.1-0.89,2.45-1.42,3.86-1.53l1.88-0.27L271.05,300.38z M285.7,360.18l-1.06-7.71
	c1.48-0.5,2.88-1.21,4.15-2.12c0.83-0.75,1.47-1.7,1.85-2.76c0.79-2.52,0.94-5.19,0.45-7.78l-3.24-23c-0.18-1.71-0.58-3.4-1.21-5
	c-0.55-1.12-1.39-2.06-2.44-2.74c-1.76-1.21-3.87-1.81-6-1.73l-1.09-7.78c9.89-1.39,17.33-1.48,22.3-0.27
	c5.46,1.25,10.43,4.07,14.29,8.13c3.86,4.11,6.26,9.48,7.19,16.11c1.03,7.39,0.24,13.67-2.35,18.84c-2.73,5.24-7,9.51-12.24,12.23
	C301.69,357.04,294.82,358.9,285.7,360.18z"/>
<path class="st0" d="M364.92,287.18l11.9,84.66c0.07,1.45,0.65,2.83,1.65,3.88c0.33,0.36,0.74,0.62,1.21,0.75
	c0.35,0.07,1.5,0.22,3.44,0.44c2.38,0.2,3.71,1.36,4,3.47c0.18,1.3-0.4,2.6-1.48,3.34c-1.31,0.89-2.83,1.4-4.41,1.5l-2.45,0.35
	l-32.14,4.46l-1.87,0.27c-1.39,0.28-2.83,0.13-4.14-0.41c-1-0.49-1.68-1.47-1.79-2.58c-0.37-1.81,0.62-3.62,2.34-4.3
	c1.51-0.75,2.38-1.2,2.63-1.36c0.32-0.24,0.57-0.57,0.71-0.94c0.51-1.2,0.64-2.53,0.35-3.8l-10.13-72.12
	c-0.08-1.3-0.56-2.54-1.38-3.55c-0.26-0.32-0.61-0.57-1-0.71c-0.28-0.08-1.25-0.28-2.91-0.59c-1.84-0.17-3.28-1.64-3.43-3.48
	c-0.22-1.11,0.16-2.25,1-3c1.1-0.89,2.45-1.42,3.86-1.54l1.87-0.26L364.92,287.18z M394.09,334.18c3.52-0.03,7.04,0.24,10.51,0.8
	c2.41,0.46,4.74,1.27,6.91,2.41c2.14,1.12,3.98,2.73,5.4,4.68c1.36,1.87,2.23,4.04,2.54,6.33l2.1,14.91
	c0.21,1.54,0.82,2.23,1.83,2.09c0.35-0.04,0.68-0.2,0.93-0.46c0.36-0.44,0.68-0.91,0.94-1.42c0.97-1.8,2.08-2.8,3.33-3
	c0.97-0.07,1.93,0.28,2.63,0.95c0.82,0.57,1.39,1.44,1.59,2.42c0.21,1.49-0.25,3.4-1.36,5.74c-1.15,2.38-2.67,4.56-4.49,6.47
	c-1.68,1.81-3.7,3.28-5.93,4.33c-2.55,1.11-5.24,1.85-8,2.18c-6.34,0.9-11.54-0.22-15.6-3.35c-4.06-3.13-6.55-7.94-7.47-14.42
	l-1.7-12.1c-0.37-2.69-0.62-4.25-0.73-4.67c-0.45-1.79-1.39-3.41-2.71-4.69c-1.76-1.54-4.07-2.3-6.4-2.11l-1.08-7.71
	c2.54-0.75,4.29-1.68,5.26-2.8c0.8-0.92,1.34-2.03,1.57-3.23c0.19-1.67,0.14-3.35-0.15-5l-2.68-19.09c-0.43-3-1.33-5.2-2.72-6.52
	s-3.68-2.21-6.87-2.64l-1.13-8l1.88-0.27c5.33-0.75,9.9-1.19,13.69-1.34c5.44-0.29,10.86,0.87,15.69,3.38
	c6.92,3.59,10.96,9.51,12.12,17.77c0.95,6.77-0.39,12.62-4,17.53c-1.54,2.1-3.44,3.91-5.61,5.35c-3.29,2.1-6.73,3.94-10.29,5.52
	V334.18z"/>
<path class="st0" d="M467.47,278.72c-1.98,0.88-3.62,2.38-4.69,4.26c-0.8,1.63-1,3.88-0.59,6.77l9.05,64.41
	c0.6,4.23,1.59,7.12,3,8.69c1.43,1.46,3.36,2.32,5.4,2.4l1.12,7.93c-10.79,0.63-20.29-2.13-28.5-8.27c-10.67-8-17.17-20.33-19.52-37
	c-1.19-7.7-1.02-15.54,0.52-23.18c1.4-6.81,4.33-13.22,8.58-18.73c2.97-3.92,6.63-7.27,10.8-9.89c4.22-2.56,8.89-4.31,13.75-5.17
	L467.47,278.72z M473.38,277.89l-1.09-7.78c4.92-0.51,9.89-0.12,14.67,1.17c4.74,1.36,9.2,3.58,13.15,6.53
	c11.14,8.18,17.91,20.77,20.3,37.78c2.34,16.67-0.52,30.32-8.57,40.95c-6.2,8.22-14.6,13.49-25.19,15.81l-1.11-7.93
	c1-0.34,1.94-0.86,2.76-1.53c0.69-0.63,1.25-1.4,1.63-2.25c1-2.15,1.25-5.21,0.69-9.2l-9.05-64.41c-0.19-2.11-0.93-4.14-2.15-5.87
	c-0.64-0.86-1.45-1.57-2.39-2.09C475.87,278.51,474.65,278.11,473.38,277.89z"/>
<path class="st0" d="M561.64,259.53l13.82,98.35l-32.06,4.5l-1.87,0.26c-1.39,0.29-2.83,0.14-4.14-0.41
	c-1.01-0.48-1.69-1.46-1.79-2.57c-0.37-1.81,0.61-3.62,2.33-4.3c1.51-0.75,2.39-1.2,2.64-1.36c0.32-0.25,0.56-0.58,0.71-0.95
	c0.51-1.19,0.64-2.52,0.35-3.79l-10.14-72.12c-0.07-1.3-0.56-2.54-1.38-3.55c-0.24-0.32-0.57-0.56-0.94-0.71
	c-0.28-0.09-1.25-0.28-2.91-0.59c-1.84-0.17-3.28-1.64-3.43-3.48c-0.22-1.11,0.16-2.25,1-3c1.1-0.89,2.45-1.42,3.86-1.54l1.87-0.26
	L561.64,259.53z M568.05,258.63l29-4.08l3.58,25.51c0.26,1.13,0.11,2.32-0.41,3.36c-1.26,1.4-3.28,1.83-5,1.07
	c-0.77-0.68-1.37-1.53-1.74-2.48c-2.61-5.33-5.88-9.21-9.83-11.62s-8.77-3.52-14.46-3.33L568.05,258.63z M575.05,311.13l-1.17-8.36
	c2.2-1.35,4.1-3.14,5.58-5.26c1.21-2.06,1.92-4.38,2.06-6.76c0-1.39,0.34-2.77,1-4c0.59-0.82,1.51-1.34,2.52-1.42
	c1.31-0.31,2.68,0.23,3.42,1.36c0.64,1.31,1.02,2.73,1.11,4.18l3.85,27.44c0.35,1.58,0.32,3.22-0.1,4.79
	c-0.48,1-1.48,1.65-2.59,1.69c-0.96,0.19-1.96-0.04-2.73-0.64c-0.92-0.88-1.6-1.97-2-3.18c-0.96-2.7-2.52-5.14-4.57-7.14
	c-1.76-1.56-3.98-2.51-6.33-2.7H575.05z M581.93,356.97l-1.09-7.79c2.6-0.73,5.11-1.77,7.46-3.1c2.11-1.31,4-2.94,5.61-4.83
	c1.67-1.86,3.07-3.95,4.16-6.21c1.11-2.57,1.93-5.25,2.43-8c0.15-1.2,0.57-2.34,1.22-3.36c0.57-0.67,1.38-1.09,2.26-1.17
	c1.07-0.27,2.21,0.03,3,0.8c0.81,1.18,1.29,2.57,1.37,4l3.61,25.41L581.93,356.97z"/>
<path class="st0" d="M648.28,247.36l11.9,84.66c0.07,1.45,0.65,2.82,1.64,3.88c0.33,0.36,0.75,0.61,1.21,0.75
	c0.35,0.07,1.5,0.22,3.44,0.43c2.38,0.21,3.71,1.37,4,3.48c0.16,1.28-0.4,2.54-1.45,3.29c-1.32,0.88-2.84,1.39-4.42,1.5l-2.45,0.35
	l-32.13,4.51l-1.87,0.26c-1.39,0.29-2.83,0.14-4.14-0.41c-1.01-0.48-1.69-1.46-1.79-2.57c-0.37-1.81,0.61-3.62,2.33-4.3
	c1.51-0.75,2.39-1.2,2.64-1.36c0.32-0.25,0.56-0.58,0.71-0.95c0.51-1.19,0.64-2.52,0.35-3.79l-10.14-72.12
	c-0.07-1.3-0.56-2.54-1.38-3.55c-0.24-0.32-0.57-0.56-0.94-0.71c-0.28-0.09-1.25-0.28-2.91-0.59c-1.84-0.17-3.28-1.64-3.43-3.48
	c-0.22-1.11,0.16-2.24,1-3c1.11-0.89,2.46-1.42,3.87-1.54l1.87-0.26L648.28,247.36z M654.62,246.47l29-4.08l3.54,25.15
	c0.28,1.22,0.15,2.51-0.37,3.65c-0.61,0.88-1.59,1.42-2.66,1.47c-0.82,0.17-1.67,0.01-2.37-0.44c-0.78-0.62-1.39-1.43-1.77-2.35
	c-0.99-2.17-2.24-4.21-3.72-6.09c-1.32-1.7-2.87-3.22-4.6-4.5c-2.13-1.59-4.54-2.77-7.1-3.48c-2.88-0.72-5.84-1.02-8.8-0.9
	L654.62,246.47z M661.62,298.97l-1.17-8.36c2.21-1.34,4.13-3.12,5.62-5.23c1.19-2.07,1.88-4.4,2-6.79c0-1.4,0.34-2.77,1-4
	c0.59-0.82,1.51-1.34,2.52-1.42c1.31-0.31,2.67,0.23,3.42,1.35c0.63,1.31,1.01,2.74,1.1,4.19l3.86,27.44
	c0.35,1.58,0.31,3.22-0.1,4.79c-0.48,1-1.48,1.65-2.59,1.69c-0.96,0.19-1.96-0.04-2.74-0.64c-0.91-0.88-1.6-1.97-2-3.18
	c-1-2.68-2.58-5.12-4.61-7.14c-1.75-1.56-3.95-2.51-6.29-2.7H661.62z"/>
<path class="st0" d="M711.25,236.46c4.08-0.65,8.22,0.68,11.16,3.57c3.21,2.98,5.18,7.06,5.91,12.25c0.3,2.27,0.35,4.57,0.15,6.85
	c-0.2,2.4-0.73,6.09-1.6,11.06c-1.27,7.03-2.06,12.61-2.39,16.75c-0.33,3.99-0.33,8.01,0,12c0.25,1.47,0.07,2.98-0.53,4.34
	c-0.68,1-1.79,1.61-3,1.66c-1.02,0.23-2.09,0-2.92-0.65c-0.84-0.91-1.38-2.05-1.53-3.28c-0.74-3.18-1.3-5.41-1.68-6.71
	s-1.12-3.28-2.23-6c-1.79-4.36-3.96-9-6.51-13.93c-3.02-5.79-4.97-9.79-5.84-12c-0.91-2.35-1.54-4.81-1.87-7.31
	c-0.65-4.13,0.19-8.36,2.36-11.94C702.96,239.33,706.87,236.85,711.25,236.46z M721.33,310.79c7.74-1.07,14.89,4.34,15.96,12.08
	c1.07,7.74-4.34,14.89-12.08,15.96c-7.74,1.07-14.89-4.34-15.96-12.08c-0.51-3.71,0.46-7.47,2.72-10.46
	C714.19,313.23,717.58,311.24,721.33,310.79z"/>
<path class="st1" d="M278.53,234.94c0,0,28.34-67.6,97-103.14c0,0,64.72-36.56,151.31-24.18c0,0,70.71,7.64,130.15,71.76
	l-10.55,2.34c0,0-41.93-48.75-121.23-66c0,0-70-13.33-145.5,23.47c0,0-56.41,28-89.73,94.13L278.53,234.94z"/>
<path class="st1" d="M313.06,467.02c0,0,46.55,56.62,122.51,71c0,0,72.5,16.45,151.89-20.26c0,0,65.54-27.62,104.07-106.1
	l-10.75,0.8c0,0-26.18,58.73-97.2,98c0,0-63.19,32.85-146.12,19.28c0,0-62.06-10.59-113-64.42L313.06,467.02z"/>
</svg>
